#!OML:ASF F:\VICON\USERDATA\INSTALL\rory3\rory3.ASF
:FULLY-SPECIFIED
:DEGREES
2501
root 0.643393 16.0403 -0.157358 -1.53551 7.33308 -2.37196
lowerback 12.9458 2.30508 -3.8639
upperback 0.892259 2.41938 -1.17703
thorax -6.43136 1.27591 0.492763
lowerneck 1.74574 -19.4019 -20.4178
upperneck 0.949016 -27.8683 24.656
head 6.49991 -13.7874 7.98718
rclavicle -3.49861e-014 4.77083e-015
rhumerus 8.43825 8.28543 -42.6117
rradius 66.7012
rwrist -31.5579
rhand 1.76663 13.5802
rfingers 7.12502
rthumb 27.2814 -14.4662
lclavicle -3.49861e-014 4.77083e-015
lhumerus -18.0032 17.0706 31.9035
lradius 78.8414
lwrist 53.4438
lhand 0.812918 16.6395
lfingers 7.12502
lthumb 26.3688 44.8261
rfemur 3.4248 8.62336 18.7168
rtibia 13.5197
rfoot -11.9959 -17.0592
rtoes -7.58606
lfemur -2.99387 -11.8596 -15.82
ltibia 18.2164
lfoot -9.68609 2.12404
ltoes -9.34904
2502
root 0.651176 16.041 -0.135071 -1.46435 7.15973 -1.92461
lowerback 12.4448 2.34169 -4.09025
upperback 0.677635 2.44445 -1.35664
thorax -6.38259 1.29435 0.439072
lowerneck 2.10182 -19.3289 -20.2609
upperneck 1.09178 -27.8192 24.4246
head 6.41032 -13.7874 7.9514
rclavicle -1.55052e-014 1.51076e-014
rhumerus 8.37171 10.2087 -42.8408
rradius 66.9296
rwrist -31.1195
rhand 1.67566 13.5446
rfingers 7.12502
rthumb 27.1944 -14.5156
lclavicle -1.55052e-014 1.51076e-014
lhumerus -18.0591 15.798 32.9812
lradius 79.0356
lwrist 53.0353
lhand 0.0810016 16.8011
lfingers 7.12502
lthumb 25.668 45.0907
rfemur 3.46854 8.72063 18.2125
rtibia 13.5571
rfoot -12.1836 -16.9637
rtoes -7.45816
lfemur -2.59871 -11.8613 -16.3796
ltibia 17.7205
lfoot -9.58754 2.35216
ltoes -9.36129
2503
root 0.659545 16.0408 -0.112511 -1.26394 7.04726 -1.1799
lowerback 11.8802 2.36312 -4.66974
upperback 0.37148 2.40098 -1.58677
thorax -6.40506 1.29107 0.542085
lowerneck 2.64351 -19.1907 -20.1836
upperneck 1.28459 -27.7175 24.1911
head 6.30581 -13.7747 7.95547
rclavicle -2.40529e-014 -3.18055e-015
rhumerus 8.18512 12.3153 -43.056
rradius 67.2879
rwrist -30.997
rhand 1.73222 13.5188
rfingers 7.12502
rthumb 27.2485 -14.5329
lclavicle -2.40529e-014 -3.18055e-015
lhumerus -18.3261 14.624 34.0632
lradius 79.1158
lwrist 52.3124
lhand -0.384363 16.7415
lfingers 7.12502
lthumb 25.2222 45.0947
rfemur 3.41364 8.6554 17.3322
rtibia 13.6136
rfoot -12.2527 -16.7891
rtoes -7.69705
lfemur -2.29272 -11.9374 -17.2654
ltibia 17.2154
lfoot -9.53343 2.61302
ltoes -9.70892
2504
root 0.666649 16.0381 -0.090602 -1.28453 6.87675 -0.889195
lowerback 11.5103 2.27928 -4.92213
upperback 0.284978 2.27874 -1.55638
thorax -6.29505 1.23926 0.748467
lowerneck 2.15161 -19.1487 -20.1834
upperneck 1.87196 -27.6375 23.7882
head 6.47921 -13.6856 7.7894
rclavicle 8.15017e-015 -5.00937e-014
rhumerus 8.39082 14.8321 -42.9158
rradius 67.9147
rwrist -31.2874
rhand 0.782286 13.5182
rfingers 7.12502
rthumb 26.3395 -14.6728
lclavicle 8.15017e-015 -5.00937e-014
lhumerus -18.857 13.9522 35.1271
lradius 79.3138
lwrist 51.841
lhand -0.449091 16.6799
lfingers 7.12502
lthumb 25.1602 45.0417
rfemur 3.56153 8.74906 17.0177
rtibia 13.6035
rfoot -12.2764 -16.7691
rtoes -8.59507
lfemur -1.84316 -11.9638 -17.6688
ltibia 16.7776
lfoot -9.54798 2.85413
ltoes -9.9172
2505
root 0.669962 16.0344 -0.0705314 -1.4529 6.63725 -1.06115
lowerback 11.2883 2.27484 -4.63164
upperback 0.282668 2.32821 -1.51337
thorax -6.1647 1.25407 0.631232
lowerneck 1.40934 -19.267 -19.8115
upperneck 2.41684 -27.7197 23.3111
head 6.65087 -13.6572 7.49865
rclavicle 1.69961e-014 1.59028e-014
rhumerus 8.56981 16.7894 -42.8626
rradius 68.4924
rwrist -31.236
rhand -0.116454 13.3239
rfingers 7.12502
rthumb 25.4788 -14.9929
lclavicle 1.69961e-014 1.59028e-014
lhumerus -18.9805 13.1025 36.2771
lradius 79.5701
lwrist 51.6428
lhand -0.607229 16.8062
lfingers 7.12502
lthumb 25.0086 45.1893
rfemur 3.91483 8.985 17.2658
rtibia 13.3671
rfoot -12.2994 -16.7837
rtoes -9.09435
lfemur -1.40452 -11.9078 -17.5412
ltibia 16.5143
lfoot -9.57159 3.0191
ltoes -9.91154
2506
root 0.671978 16.0322 -0.0510692 -1.63995 6.35233 -1.27296
lowerback 11.0874 2.26835 -4.30159
upperback 0.185198 2.37349 -1.47574
thorax -6.14468 1.26839 0.483608
lowerneck 1.15275 -19.265 -19.5298
upperneck 2.82699 -27.6985 22.9178
head 6.70739 -13.6198 7.32284
rclavicle -6.95746e-016 -1.35174e-014
rhumerus 8.80545 18.5978 -43.0986
rradius 68.8311
rwrist -30.723
rhand -0.314006 13.0907
rfingers 7.12502
rthumb 25.2896 -15.2529
lclavicle -6.95746e-016 -1.35174e-014
lhumerus -19.2357 12.1603 37.3949
lradius 79.7922
lwrist 51.4608
lhand -0.884925 17.0402
lfingers 7.12502
lthumb 24.7425 45.46
rfemur 4.42122 9.27497 17.5651
rtibia 12.812
rfoot -12.131 -16.8343
rtoes -9.06845
lfemur -1.04957 -11.8671 -17.3685
ltibia 16.4518
lfoot -9.71315 3.20163
ltoes -9.75831
2507
root 0.675992 16.0334 -0.0291906 -1.84334 5.97854 -1.44513
lowerback 10.7925 2.21909 -4.03209
upperback 0.063735 2.35973 -1.40263
thorax -6.09828 1.25604 0.419918
lowerneck 1.1733 -19.1184 -19.4739
upperneck 3.13529 -27.5115 22.6188
head 6.70161 -13.5277 7.26832
rclavicle 3.62782e-014 -1.43125e-014
rhumerus 9.41702 20.8294 -43.2929
rradius 68.9255
rwrist -30.362
rhand -0.320619 13.0486
rfingers 7.12502
rthumb 25.2832 -15.2959
lclavicle 3.62782e-014 -1.43125e-014
lhumerus -19.7507 11.4076 38.4216
lradius 79.9841
lwrist 51.4187
lhand -0.911832 17.304
lfingers 7.12502
lthumb 24.7167 45.7273
rfemur 5.03294 9.61075 17.8166
rtibia 12.0595
rfoot -11.7729 -16.8738
rtoes -8.80955
lfemur -0.699379 -11.7586 -17.2542
ltibia 16.508
lfoot -9.94659 3.41233
ltoes -9.58312
2508
root 0.679448 16.0354 -0.0068841 -2.05362 5.61433 -1.66195
lowerback 10.543 2.21206 -3.68033
upperback -0.117106 2.40568 -1.34396
thorax -6.13814 1.27155 0.281835
lowerneck 1.37678 -18.9819 -19.4327
upperneck 3.43054 -27.3648 22.32
head 6.67274 -13.4688 7.22555
rclavicle -3.60794e-014 1.74931e-014
rhumerus 8.74485 22.9104 -43.755
rradius 69.873
rwrist -30.077
rhand 0.120044 13.2775
rfingers 7.12502
rthumb 25.7053 -15.0067
lclavicle -3.60794e-014 1.74931e-014
lhumerus -20.3081 10.3855 39.5204
lradius 80.2147
lwrist 51.6653
lhand -1.04328 17.3122
lfingers 7.12502
lthumb 24.5907 45.7528
rfemur 5.68377 10.0071 18.1312
rtibia 11.2573
rfoot -11.5699 -16.9033
rtoes -7.85471
lfemur -0.315554 -11.6511 -17.0862
ltibia 16.5168
lfoot -10.2135 3.6165
ltoes -9.81686
2509
root 0.679872 16.0361 0.0127941 -2.28127 5.31512 -2.00411
lowerback 10.4055 2.1872 -3.22146
upperback -0.309746 2.43735 -1.23628
thorax -6.25002 1.27751 0.132852
lowerneck 1.48207 -18.8811 -19.4696
upperneck 3.83402 -27.2732 22.0237
head 6.7172 -13.4269 7.16613
rclavicle 7.65321e-015 5.56597e-015
rhumerus 8.40896 24.7842 -44.2754
rradius 70.3962
rwrist -29.8215
rhand 0.425964 13.4158
rfingers 7.12502
rthumb 25.9983 -14.8257
lclavicle 7.65321e-015 5.56597e-015
lhumerus -20.857 9.24782 40.7163
lradius 80.288
lwrist 51.9853
lhand -1.54065 17.1272
lfingers 7.12502
lthumb 24.1139 45.6318
rfemur 6.35599 10.3978 18.6214
rtibia 10.4531
rfoot -11.2804 -17.0664
rtoes -7.64521
lfemur 0.0730847 -11.5354 -16.758
ltibia 16.4631
lfoot -10.3665 3.70984
ltoes -9.98347
2510
root 0.682158 16.0358 0.0327633 -2.50106 4.97167 -2.22132
lowerback 10.3288 2.15357 -2.93154
upperback -0.511807 2.43382 -1.12518
thorax -6.41264 1.27111 0.0849259
lowerneck 1.47702 -18.7904 -19.5055
upperneck 4.30922 -27.1786 21.6484
head 6.78894 -13.3762 7.07031
rclavicle 2.64632e-014 1.59028e-015
rhumerus 8.30978 26.8397 -44.7121
rradius 70.813
rwrist -29.4677
rhand 0.13865 13.3872
rfingers 7.12502
rthumb 25.7232 -14.8944
lclavicle 2.64632e-014 1.59028e-015
lhumerus -21.5282 8.31204 41.9295
lradius 80.2615
lwrist 52.0469
lhand -1.80303 16.8572
lfingers 7.12502
lthumb 23.8623 45.3949
rfemur 7.01057 10.6822 18.9447
rtibia 9.67144
rfoot -10.9269 -17.0826
rtoes -7.68847
lfemur 0.504503 -11.4019 -16.5833
ltibia 16.3781
lfoot -10.4987 3.82802
ltoes -9.70018
2511
root 0.686907 16.0343 0.0548409 -2.72135 4.64756 -2.31375
lowerback 10.3571 2.12045 -2.74438
upperback -0.78638 2.41137 -1.04111
thorax -6.71494 1.25895 0.0631625
lowerneck 1.45034 -18.6799 -19.541
upperneck 4.89991 -27.0612 21.2018
head 6.88513 -13.3129 6.95347
rclavicle -2.29224e-014 1.11319e-014
rhumerus 8.09096 29.091 -45.1098
rradius 71.375
rwrist -29.2741
rhand -0.255854 13.3376
rfingers 7.12502
rthumb 25.3453 -14.9981
lclavicle -2.29224e-014 1.11319e-014
lhumerus -22.4171 7.41104 43.1458
lradius 80.3318
lwrist 52.095
lhand -1.86763 16.6985
lfingers 7.12502
lthumb 23.8003 45.2443
rfemur 7.68214 10.9557 19.1094
rtibia 8.89934
rfoot -10.6211 -17.0728
rtoes -7.38401
lfemur 0.962247 -11.3257 -16.5748
ltibia 16.3097
lfoot -10.698 4.00766
ltoes -9.62598
2512
root 0.689417 16.0336 0.0730344 -2.88766 4.38838 -2.32546
lowerback 10.3205 2.0886 -2.62263
upperback -1.01025 2.38378 -1.00218
thorax -6.92788 1.24447 0.0355866
lowerneck 1.34951 -18.5752 -19.5452
upperneck 5.40006 -26.9344 20.8379
head 6.97409 -13.2415 6.85341
rclavicle -5.79457e-014 -4.77083e-015
rhumerus 7.81675 31.1094 -45.6161
rradius 71.8901
rwrist -29.1155
rhand -0.614047 13.4395
rfingers 7.12502
rthumb 25.0021 -14.9444
lclavicle -5.79457e-014 -4.77083e-015
lhumerus -22.6117 7.27905 44.6087
lradius 79.9736
lwrist 51.5769
lhand -1.76313 16.8862
lfingers 7.12502
lthumb 23.9006 45.4189
rfemur 8.15204 11.1667 19.1832
rtibia 8.4176
rfoot -10.4057 -17.0764
rtoes -7.50996
lfemur 1.40646 -11.2826 -16.6326
ltibia 16.0888
lfoot -10.8003 4.22608
ltoes -9.66086
2513
root 0.689532 16.0328 0.0895258 -3.01858 4.10293 -2.42273
lowerback 10.189 2.05202 -2.41927
upperback -1.18203 2.36521 -0.958188
thorax -7.02849 1.23031 -0.0287427
lowerneck 1.27564 -18.4728 -19.5436
upperneck 5.75979 -26.8047 20.5774
head 7.03094 -13.1725 6.78938
rclavicle 2.03692e-014 -2.46493e-014
rhumerus 7.54099 32.6991 -46.5152
rradius 72.067
rwrist -28.6775
rhand -0.646829 13.7053
rfingers 7.12502
rthumb 24.9707 -14.683
lclavicle 2.03692e-014 -2.46493e-014
lhumerus -23.176 6.68562 45.9141
lradius 79.9295
lwrist 50.9715
lhand -1.36683 16.7443
lfingers 7.12502
lthumb 24.2806 45.2267
rfemur 8.19659 11.3962 19.3569
rtibia 8.64132
rfoot -10.4912 -17.0589
rtoes -7.92054
lfemur 1.96742 -11.1908 -16.5651
ltibia 15.5248
lfoot -10.6657 4.46981
ltoes -9.90554
2514
root 0.692949 16.0329 0.108502 -2.96324 3.82778 -2.09437
lowerback 9.87461 2.04755 -2.62127
upperback -1.39259 2.33546 -1.04231
thorax -7.07799 1.22393 0.00694464
lowerneck 1.31554 -18.3771 -19.5268
upperneck 6.0573 -26.6929 20.3286
head 7.0532 -13.1214 6.73616
rclavicle 1.77415e-014 -2.3059e-014
rhumerus 7.09302 34.1932 -47.5951
rradius 72.2105
rwrist -28.2846
rhand -0.658755 13.8858
rfingers 7.12502
rthumb 24.9593 -14.5041
lclavicle 1.77415e-014 -2.3059e-014
lhumerus -24.0583 5.69438 47.1077
lradius 80.0073
lwrist 50.1103
lhand 0.0228819 16.4905
lfingers 7.12502
lthumb 25.6123 44.7881
rfemur 7.9571 11.6443 19.0003
rtibia 9.11863
rfoot -10.7241 -17.0619
rtoes -8.33911
lfemur 2.47023 -11.1334 -16.9761
ltibia 14.7965
lfoot -10.5499 4.75887
ltoes -9.92197
2515
root 0.700149 16.0333 0.125946 -2.64374 3.72817 -1.03884
lowerback 9.22449 2.03827 -3.45284
upperback -1.53689 2.22567 -1.36356
thorax -6.8796 1.19685 0.172506
lowerneck 1.23307 -18.3344 -19.4276
upperneck 6.23532 -26.6191 20.1115
head 7.05986 -13.0807 6.66452
rclavicle 1.26477e-014 1.59028e-015
rhumerus 6.66434 35.5321 -48.6295
rradius 72.4206
rwrist -28.0582
rhand -0.712806 13.9139
rfingers 7.12502
rthumb 24.9075 -14.4832
lclavicle 1.26477e-014 1.59028e-015
lhumerus -24.9424 4.54416 48.3711
lradius 80.27
lwrist 49.453
lhand 0.705027 16.4189
lfingers 7.12502
lthumb 26.2655 44.6209
rfemur 7.60342 11.7606 17.7308
rtibia 9.41356
rfoot -10.8794 -17.0364
rtoes -8.87181
lfemur 2.67187 -11.2078 -18.1895
ltibia 14.1364
lfoot -10.3987 5.06788
ltoes -9.59939
